<?xml version="1.0" encoding="utf-8"?>
<!-- Generator: Adobe Illustrator 22.0.1, SVG Export Plug-In . SVG Version: 6.00 Build 0)  -->
<svg version="1.1" id="Camada_1" xmlns="http://www.w3.org/2000/svg" xmlns:xlink="http://www.w3.org/1999/xlink" x="0px" y="0px"
	 viewBox="0 0 512 512" style="enable-background:new 0 0 512 512;" xml:space="preserve">
<style type="text/css">
	.st0{fill:#221E1F;}
</style>
<g>
	<path id="Behance_2_" class="st0" d="M393.1,179.7h-85.5v-21.2h85.5L393.1,179.7L393.1,179.7z M250.6,266.8
		c5.5,8.5,8.3,18.9,8.3,31.1c0,12.6-3.1,23.9-9.4,33.9c-4,6.6-9,12.2-15,16.7c-6.8,5.2-14.8,8.8-24,10.7c-9.2,1.9-19.2,2.9-30,2.9
		H84.9V149.7h102.6c25.9,0.4,44.2,7.9,55,22.6c6.5,9,9.7,19.8,9.7,32.4c0,13-3.3,23.4-9.8,31.3c-3.6,4.4-9,8.5-16.2,12.1
		C237,252,245.2,258.3,250.6,266.8z M133.8,233.4h44.9c9.2,0,16.7-1.8,22.5-5.3c5.7-3.5,8.6-9.7,8.6-18.7c0-9.9-3.8-16.4-11.4-19.6
		c-6.5-2.2-14.9-3.3-25.1-3.3h-39.5V233.4z M214.2,294.9c0-11-4.5-18.7-13.5-22.8c-5-2.3-12.1-3.5-21.2-3.6h-45.6v56.6h44.9
		c9.2,0,16.4-1.2,21.5-3.7C209.5,316.8,214.2,308,214.2,294.9z M424.8,260.4c1,6.9,1.5,17,1.3,30.2H315.4c0.6,15.3,5.9,26,15.9,32.1
		c6,3.8,13.4,5.7,21.9,5.7c9,0,16.4-2.3,22.1-7c3.1-2.5,5.8-6,8.2-10.4h40.6c-1.1,9-6,18.2-14.7,27.5
		c-13.6,14.8-32.7,22.2-57.2,22.2c-20.3,0-38.1-6.3-53.6-18.7c-15.4-12.5-23.2-32.8-23.2-60.9c0-26.4,7-46.6,20.9-60.7
		c14-14.1,32.1-21.1,54.4-21.1c13.2,0,25.1,2.4,35.8,7.1c10.6,4.8,19.4,12.2,26.3,22.5C419,237.9,423,248.4,424.8,260.4z
		 M384.9,264.3c-0.7-10.6-4.3-18.6-10.6-24c-6.3-5.5-14.2-8.2-23.6-8.2c-10.2,0-18.1,2.9-23.7,8.7c-5.6,5.8-9.2,13.6-10.6,23.6
		L384.9,264.3L384.9,264.3z"/>
</g>
</svg>
