<?xml version="1.0" encoding="utf-8"?>
<!-- Generator: Adobe Illustrator 21.0.2, SVG Export Plug-In . SVG Version: 6.00 Build 0)  -->
<svg version="1.1" id="Layer_1" xmlns="http://www.w3.org/2000/svg" xmlns:xlink="http://www.w3.org/1999/xlink" x="0px" y="0px"
	 viewBox="0 0 512 512" style="enable-background:new 0 0 512 512;" xml:space="preserve">
<style type="text/css">
	.st0{fill:#231F20;}
</style>
<path class="st0" d="M78,256c0-32.3,8-62.1,23.9-89.4c15.9-27.3,37.5-48.9,64.8-64.8C193.9,86,223.7,78,256,78
	c32.3,0,62.1,8,89.4,23.9c27.3,15.9,48.9,37.5,64.8,64.8C426,193.9,434,223.7,434,256s-8,62.1-23.9,89.4
	c-15.9,27.3-37.5,48.9-64.8,64.8C318.1,426,288.3,434,256,434c-32.3,0-62.1-8-89.4-23.9c-27.3-15.9-48.9-37.5-64.8-64.8
	C86,318.1,78,288.3,78,256z M107.5,256c0,37,12.5,69.7,37.4,97.9c11.4-22.3,29.4-43.6,54.1-63.7c24.7-20.2,48.8-32.9,72.3-38.1
	c-3.6-8.3-7-15.8-10.3-22.4c-40.8,13.1-85,19.6-132.4,19.6c-9.3,0-16.1-0.1-20.6-0.4c0,0.9-0.1,2.1-0.2,3.6
	C107.6,253.9,107.5,255.1,107.5,256z M112.2,219.3c5.2,0.5,12.9,0.7,23.1,0.7c39.6,0,77.3-5.3,112.9-16c-18-32-37.9-58.7-59.5-80.1
	c-18.7,9.5-34.8,22.7-48.2,39.5C127.1,180.3,117.6,198.9,112.2,219.3z M165.2,373.1c26.8,20.9,57.1,31.3,90.8,31.3
	c17.6,0,35-3.3,52.3-10c-4.7-40.6-14-79.9-27.8-117.8c-21.8,4.7-43.8,16.7-66,36C192.3,331.8,175.9,352,165.2,373.1z M219.7,112.5
	c20.9,21.6,40.2,48.5,58,80.8c32.3-13.5,56.6-30.7,73-51.6c-27.5-22.8-59.1-34.2-94.7-34.2C243.9,107.5,231.8,109.2,219.7,112.5z
	 M290.5,218.6c3.6,7.6,7.6,17.2,12.1,28.8c17.6-1.7,36.7-2.5,57.3-2.5c14.7,0,29.3,0.4,43.8,1.1c-1.9-32.3-13.5-61-34.9-86.2
	C353.4,182.9,327.3,202.5,290.5,218.6z M311.5,272.4c12.1,35.1,20.3,71.2,24.6,108.2c18.7-12.1,34.1-27.6,45.9-46.6
	c11.9-19,19-39.5,21.4-61.6c-17.3-1.2-33.1-1.8-47.3-1.8C343,270.6,328.1,271.2,311.5,272.4z"/>
</svg>
