<?xml version="1.0" encoding="utf-8"?>
<!-- Generator: Adobe Illustrator 22.0.1, SVG Export Plug-In . SVG Version: 6.00 Build 0)  -->
<svg version="1.1" id="Camada_1" xmlns="http://www.w3.org/2000/svg" xmlns:xlink="http://www.w3.org/1999/xlink" x="0px" y="0px"
	 viewBox="0 0 512 512" style="enable-background:new 0 0 512 512;" xml:space="preserve">
<style type="text/css">
	.st0{fill:#221E1F;}
</style>
<g>
	<path class="st0" d="M255.9,114.7c45.8,0,51.2,0.2,69.2,1c16.7,0.8,25.8,3.6,31.8,5.9c8,3.1,13.7,6.8,19.7,12.8
		c6,6,9.7,11.7,12.8,19.7c2.3,6,5.1,15.1,5.9,31.8c0.8,18.1,1,23.5,1,69.2s-0.2,51.2-1,69.2c-0.8,16.7-3.6,25.8-5.9,31.8
		c-3.1,8-6.8,13.7-12.8,19.7c-6,6-11.7,9.7-19.7,12.8c-6,2.3-15.1,5.1-31.8,5.9c-18.1,0.8-23.5,1-69.2,1s-51.2-0.2-69.2-1
		c-16.7-0.8-25.8-3.6-31.8-5.9c-8-3.1-13.7-6.8-19.7-12.8c-6-6-9.7-11.7-12.8-19.7c-2.3-6-5.1-15.1-5.9-31.8
		c-0.8-18.1-1-23.5-1-69.2s0.2-51.2,1-69.2c0.8-16.7,3.6-25.8,5.9-31.8c3.1-8,6.8-13.7,12.8-19.7s11.7-9.7,19.7-12.8
		c6-2.3,15.1-5.1,31.8-5.9C204.7,114.8,210.1,114.7,255.9,114.7 M255.9,83.8c-46.5,0-52.4,0.2-70.7,1c-18.2,0.8-30.7,3.7-41.6,8
		c-11.3,4.4-20.8,10.2-30.4,19.8s-15.4,19.1-19.8,30.4c-4.2,10.9-7.1,23.4-8,41.6c-0.8,18.3-1,24.1-1,70.7s0.2,52.4,1,70.7
		c0.8,18.2,3.7,30.7,8,41.6c4.4,11.3,10.2,20.8,19.8,30.4c9.5,9.5,19.1,15.4,30.4,19.8c10.9,4.2,23.4,7.1,41.6,8
		c18.3,0.8,24.1,1,70.7,1s52.4-0.2,70.7-1c18.2-0.8,30.7-3.7,41.6-8c11.3-4.4,20.8-10.2,30.4-19.8c9.5-9.5,15.4-19.1,19.8-30.4
		c4.2-10.9,7.1-23.4,8-41.6c0.8-18.3,1-24.1,1-70.7s-0.2-52.4-1-70.7c-0.8-18.2-3.7-30.7-8-41.6c-4.4-11.3-10.2-20.8-19.8-30.4
		c-9.5-9.5-19.1-15.4-30.4-19.8c-10.9-4.2-23.4-7.1-41.6-8C308.2,84,302.4,83.8,255.9,83.8z M305,180.6
		c-84.7-47.3-171,39-123.7,123.7c5.9,10.6,14.8,19.5,25.4,25.4c84.7,47.3,171-39,123.7-123.7C324.5,195.4,315.6,186.6,305,180.6z
		 M290.7,301.8c-56.9,35.1-116.6-24.6-81.5-81.5c3-4.8,7-8.9,11.8-11.8c56.9-35.1,116.6,24.6,81.5,81.5
		C299.6,294.8,295.5,298.9,290.7,301.8z M362.4,148.6c16.8,22-8.1,46.9-30.1,30.1c0,0,0,0,0,0C315.5,156.7,340.4,131.8,362.4,148.6z
		"/>
</g>
</svg>
