<?xml version="1.0" encoding="utf-8"?>
<!-- Generator: Adobe Illustrator 22.0.1, SVG Export Plug-In . SVG Version: 6.00 Build 0)  -->
<svg version="1.1" id="Camada_1" xmlns="http://www.w3.org/2000/svg" xmlns:xlink="http://www.w3.org/1999/xlink" x="0px" y="0px"
	 viewBox="0 0 512 512" style="enable-background:new 0 0 512 512;" xml:space="preserve">
<style type="text/css">
	.st0{fill:#221E1F;}
</style>
<g>
	<path class="st0" d="M271.7,243.6V243c-0.1,0.2-0.2,0.3-0.3,0.5H271.7z"/>
	<path class="st0" d="M403,85.5H109.8c-13,0-23.5,10.5-23.5,23.5v293.3c0,13,10.5,23.5,23.5,23.5H403c13,0,23.5-10.5,23.5-23.5V109
		C426.5,96,416,85.5,403,85.5z M190.6,377.8h-52.2v-157h52.2V377.8z M164.5,199.4h-0.3c-17.5,0-28.9-12.1-28.9-27.1
		c0-15.4,11.7-27.1,29.6-27.1c17.9,0,28.8,11.7,29.2,27.1C194.1,187.3,182.7,199.4,164.5,199.4z M378.9,377.8h-52.2v-84
		c0-21.1-7.6-35.5-26.4-35.5c-14.4,0-23,9.7-26.8,19.1c-1.4,3.4-1.7,8-1.7,12.7v87.7h-52.2c0,0,0.7-142.3,0-157h52.2V243
		c6.9-10.7,19.3-25.9,47.1-25.9c34.4,0,60.1,22.4,60.1,70.7V377.8z"/>
</g>
</svg>
