<?xml version="1.0" encoding="utf-8"?>
<!-- Generator: Adobe Illustrator 22.1.0, SVG Export Plug-In . SVG Version: 6.00 Build 0)  -->
<svg version="1.1" id="Layer_1" xmlns="http://www.w3.org/2000/svg" xmlns:xlink="http://www.w3.org/1999/xlink" x="0px" y="0px"
	 viewBox="0 0 316 316" style="enable-background:new 0 0 316 316;" xml:space="preserve">
<style type="text/css">
	.st0{fill:none;stroke:#231F20;stroke-width:5;stroke-miterlimit:10;}
</style>
<g>
	<path class="st0" d="M296.4,185.4c0-0.6,0-1.1,0-1.7c0-14.2-9.1-26.3-21.7-30.8c-4.5-12.7-16.6-21.9-30.8-21.9
		c-16.1,0-29.4,11.6-32.1,26.9c-3.1-1-6.4-1.5-9.9-1.5c-0.1,0-0.2,0-0.3,0c-5.8-9.2-16-15.3-27.7-15.3c-14.9,0-27.5,10-31.4,23.7
		c-3.6-2.3-7.8-3.7-12.4-3.7c-12.5,0-22.7,10.1-22.7,22.7c0,0.6,0,1.1,0.1,1.7H61.3"/>
	<line class="st0" x1="18.9" y1="185.4" x2="51" y2="185.4"/>
</g>
</svg>
