<?xml version="1.0" encoding="utf-8"?>
<!-- Generator: Adobe Illustrator 22.1.0, SVG Export Plug-In . SVG Version: 6.00 Build 0)  -->
<svg version="1.1" id="Layer_1" xmlns="http://www.w3.org/2000/svg" xmlns:xlink="http://www.w3.org/1999/xlink" x="0px" y="0px"
	 viewBox="0 0 700 700" style="enable-background:new 0 0 700 700;" xml:space="preserve">
<style type="text/css">
	.st0{display:none;fill:#F7F7F7;}
	.st1{fill:#231F20;}
	.st2{fill:none;stroke:#CCCCCC;stroke-width:3;stroke-linecap:round;stroke-linejoin:round;stroke-miterlimit:10;}
	.st3{fill:none;stroke:#0071BC;stroke-width:3;stroke-linecap:round;stroke-linejoin:round;stroke-miterlimit:10;}
	.st4{display:none;}
	.st5{display:inline;fill:none;stroke:#CCCCCC;stroke-width:3;stroke-linecap:round;stroke-linejoin:round;stroke-miterlimit:10;}
	.st6{display:none;fill:none;stroke:#CCCCCC;stroke-width:3;stroke-linecap:round;stroke-linejoin:round;stroke-miterlimit:10;}
</style>
<rect class="st0" width="700" height="700"/>
<g>
	<polygon class="st1" points="287.3,238.1 181.8,238.1 363.1,512.8 354,526.8 163.6,238.1 146.4,238.1 354.3,554.2 424.8,447.1 	"/>
	<path class="st1" d="M393.8,372.2l40.1,61l128.3-195.1h-96.1C397.2,238.1,356,314.7,393.8,372.2z"/>
</g>
<g>
	<circle class="st2" cx="-497.5" cy="507.6" r="12.8"/>
	<circle class="st2" cx="-531" cy="607.5" r="86.8"/>
	<circle class="st2" cx="-391.6" cy="189" r="226.2"/>
	<circle class="st2" cx="-304.8" cy="553.7" r="139.5"/>
	<rect x="-617.4" y="-37.8" class="st3" width="452.2" height="452.2"/>
	<circle class="st2" cx="-477.3" cy="447.2" r="33"/>
	<circle class="st2" cx="-464.7" cy="500.2" r="19.9"/>
	<circle class="st2" cx="-563.5" cy="467.5" r="53.1"/>
	<rect x="-444.6" y="414.4" class="st3" width="279.3" height="279.3"/>
	<rect x="-617.4" y="520.8" class="st3" width="172.9" height="172.9"/>
	<rect x="-617.4" y="414.4" class="st3" width="106.4" height="106.4"/>
	<rect x="-511" y="414.4" class="st3" width="66.5" height="66.4"/>
	<rect x="-484.6" y="480.8" class="st3" width="40" height="40"/>
	<rect x="-511" y="494.3" class="st3" width="26.4" height="26.5"/>
	<rect x="-511" y="480.8" class="st3" width="13.6" height="13.6"/>
	<path class="st3" d="M-617.8-37.2c250.1,0,452.5,202.4,452.5,452.5v-1.1c0,154.2-124.8,279-279,279c-95.9,0-173.5-77.6-173.5-173.5
		v1.1c0-58.8,47.6-106.5,106.5-106.5c37.1,0,67.1,30,67.1,67.1v-1.1c0,22.4-18.1,40.5-40.5,40.5c-14.7,0-26.6-11.9-26.6-26.6
		c0-7.1,6.2-12.8,13.8-12.8"/>
	<g class="st4">
		<circle class="st5" cx="466.1" cy="324.9" r="86.8"/>
		<circle class="st5" cx="354.5" cy="328.2" r="226.2"/>
		<line class="st5" x1="110.8" y1="184" x2="374.6" y2="585"/>
		<line class="st5" x1="128.4" y1="184" x2="392.2" y2="585"/>
		<line class="st5" x1="146.3" y1="184" x2="410.1" y2="585"/>
		<line class="st5" x1="251.7" y1="184" x2="515.5" y2="585"/>
		<line class="st5" x1="270.2" y1="184" x2="533.9" y2="585"/>
		<line class="st5" x1="597.8" y1="184" x2="334" y2="585"/>
		<line class="st5" x1="110.8" y1="238.1" x2="597.8" y2="238.1"/>
	</g>
	<rect x="128.4" y="102" class="st6" width="451.7" height="451.7"/>
</g>
</svg>
