<?xml version="1.0" encoding="utf-8"?>
<!-- Generator: Adobe Illustrator 22.1.0, SVG Export Plug-In . SVG Version: 6.00 Build 0)  -->
<svg version="1.1" id="Layer_1" xmlns="http://www.w3.org/2000/svg" xmlns:xlink="http://www.w3.org/1999/xlink" x="0px" y="0px"
	 viewBox="0 0 800 800" style="enable-background:new 0 0 800 800;" xml:space="preserve">
<style type="text/css">
	.st0{fill:#231F20;}
</style>
<g>
	<path class="st0" d="M45,615.4l-20.5-51h12.3l13.2,35.7l13.2-35.7h12l-20.5,51H45z"/>
	<path class="st0" d="M83.7,615v-50.6h11.1V615H83.7z"/>
	<path class="st0" d="M131.2,615.9c-7.4,0-13.6-2.5-18.6-7.6c-4.9-5-7.4-11.3-7.4-18.6c0-7.3,2.5-13.5,7.5-18.6
		c5-5.1,11.3-7.6,19-7.6c4.4,0,8.1,0.7,11.1,2.1c3,1.4,5.8,3.5,8.5,6.1l-6.7,7.7c-2.2-2-4.2-3.4-6.1-4.3c-1.9-0.9-4.2-1.3-6.9-1.3
		c-4.2,0-7.8,1.5-10.5,4.6c-2.8,3.1-4.2,6.8-4.2,11.3c0,4.4,1.4,8.2,4.2,11.3c2.8,3.1,6.3,4.6,10.5,4.6c2.7,0,5-0.5,7-1.4
		c2-1,4.1-2.5,6.3-4.5l7.1,7.6c-2.7,2.9-5.7,5.1-8.9,6.5C139.8,615.2,135.9,615.9,131.2,615.9z"/>
	<path class="st0" d="M172.7,615v-40.4h-15.4v-10.3h42v10.3h-15.4V615H172.7z"/>
	<path class="st0" d="M249.5,608.3c-5.1,5.1-11.6,7.6-19.3,7.6c-7.7,0-14.1-2.5-19.2-7.6c-5.1-5.1-7.6-11.3-7.6-18.6
		c0-7.3,2.6-13.5,7.7-18.6c5.1-5.1,11.6-7.6,19.3-7.6c7.7,0,14.1,2.5,19.2,7.6c5.1,5.1,7.6,11.3,7.6,18.6
		C257.2,597,254.6,603.2,249.5,608.3z M219.3,601c2.9,3.1,6.6,4.6,11,4.6c4.4,0,8.1-1.5,10.9-4.6c2.8-3.1,4.3-6.8,4.3-11.3
		c0-4.4-1.4-8.2-4.3-11.3c-2.9-3.1-6.6-4.6-11-4.6c-4.4,0-8.1,1.5-10.9,4.6c-2.8,3.1-4.3,6.8-4.3,11.3
		C215,594.2,216.4,597.9,219.3,601z"/>
	<path class="st0" d="M267.1,615v-50.6h23.2c6.4,0,11.3,1.7,14.8,5.1c2.9,2.9,4.3,6.8,4.3,11.7c0,7.8-3.6,13-10.9,15.7l12.4,18.1
		h-13l-11-16.2h-8.6V615H267.1z M278.2,589h11.3c2.7,0,4.8-0.7,6.3-2c1.5-1.3,2.2-3.1,2.2-5.3c0-2.4-0.8-4.2-2.3-5.4
		c-1.5-1.2-3.7-1.8-6.4-1.8h-11.1V589z"/>
	<path class="st0" d="M341.1,615v-50.6h12l13.3,21.4l13.3-21.4h12V615h-11.1V582l-14.3,21.6h-0.3L352,582.2V615H341.1z"/>
	<path class="st0" d="M399.6,615l21.7-51h10.3l21.7,51h-11.6l-4.6-11.4h-21.4l-4.6,11.4H399.6z M419.5,593.8H433l-6.7-16.4
		L419.5,593.8z"/>
	<path class="st0" d="M461.1,615v-50.6h11.1v40.5h25.3V615H461.1z"/>
	<path class="st0" d="M546.8,608.3c-5.1,5.1-11.6,7.6-19.3,7.6c-7.7,0-14.1-2.5-19.2-7.6c-5.1-5.1-7.6-11.3-7.6-18.6
		c0-7.3,2.6-13.5,7.7-18.6c5.1-5.1,11.6-7.6,19.3-7.6c7.7,0,14.1,2.5,19.2,7.6c5.1,5.1,7.6,11.3,7.6,18.6
		C554.5,597,552,603.2,546.8,608.3z M516.7,601c2.9,3.1,6.6,4.6,11,4.6c4.4,0,8.1-1.5,10.9-4.6c2.8-3.1,4.3-6.8,4.3-11.3
		c0-4.4-1.4-8.2-4.3-11.3c-2.9-3.1-6.6-4.6-11-4.6c-4.4,0-8.1,1.5-10.9,4.6c-2.8,3.1-4.3,6.8-4.3,11.3
		C512.4,594.2,513.8,597.9,516.7,601z"/>
	<path class="st0" d="M574.4,615v-20l-19.5-30.7h13l12.1,20.3l12.3-20.3H605l-19.5,30.5V615H574.4z"/>
	<path class="st0" d="M599.6,615l21.7-51h10.3l21.7,51h-11.6l-4.6-11.4h-21.4L611,615H599.6z M619.6,593.8H633l-6.7-16.4
		L619.6,593.8z"/>
	<path class="st0" d="M661.1,615v-50.6h12l13.3,21.4l13.3-21.4h12V615h-11.1V582l-14.3,21.6h-0.3L672,582.2V615H661.1z"/>
	<path class="st0" d="M719.6,615l21.7-51h10.3l21.7,51h-11.6l-4.6-11.4h-21.4l-4.6,11.4H719.6z M739.5,593.8H753l-6.7-16.4
		L739.5,593.8z"/>
</g>
<g>
	<g>
		<polygon class="st0" points="370.5,327.7 322.9,327.7 404.7,451.7 400.6,458 314.6,327.7 306.9,327.7 400.8,470.4 432.6,422.1 		
			"/>
		<path class="st0" d="M418.6,388.2l18.1,27.5l57.9-88.1h-43.4C420.1,327.7,401.5,362.2,418.6,388.2z"/>
	</g>
</g>
</svg>
